<svg id="visual" viewBox="0 0 1920 1080" width="1920" height="1080" xmlns="http://www.w3.org/2000/svg" xmlns:xlink="http://www.w3.org/1999/xlink" version="1.1"><rect x="0" y="0" width="1920" height="1080" fill="#FFFFFF"></rect><defs><linearGradient id="grad1_0" x1="43.8%" y1="0%" x2="100%" y2="100%"><stop offset="14.444444444444446%" stop-color="#00595c" stop-opacity="1"></stop><stop offset="85.55555555555554%" stop-color="#00595c" stop-opacity="1"></stop></linearGradient></defs><defs><linearGradient id="grad1_1" x1="43.8%" y1="0%" x2="100%" y2="100%"><stop offset="14.444444444444446%" stop-color="#00595c" stop-opacity="1"></stop><stop offset="85.55555555555554%" stop-color="#89a9aa" stop-opacity="1"></stop></linearGradient></defs><defs><linearGradient id="grad1_2" x1="43.8%" y1="0%" x2="100%" y2="100%"><stop offset="14.444444444444446%" stop-color="#ffffff" stop-opacity="1"></stop><stop offset="85.55555555555554%" stop-color="#89a9aa" stop-opacity="1"></stop></linearGradient></defs><defs><linearGradient id="grad2_0" x1="0%" y1="0%" x2="56.3%" y2="100%"><stop offset="14.444444444444446%" stop-color="#00595c" stop-opacity="1"></stop><stop offset="85.55555555555554%" stop-color="#00595c" stop-opacity="1"></stop></linearGradient></defs><defs><linearGradient id="grad2_1" x1="0%" y1="0%" x2="56.3%" y2="100%"><stop offset="14.444444444444446%" stop-color="#89a9aa" stop-opacity="1"></stop><stop offset="85.55555555555554%" stop-color="#00595c" stop-opacity="1"></stop></linearGradient></defs><defs><linearGradient id="grad2_2" x1="0%" y1="0%" x2="56.3%" y2="100%"><stop offset="14.444444444444446%" stop-color="#89a9aa" stop-opacity="1"></stop><stop offset="85.55555555555554%" stop-color="#ffffff" stop-opacity="1"></stop></linearGradient></defs><g transform="translate(1920, 0)"><path d="M0 594C-59.5 550.4 -119 506.8 -202.1 487.8C-285.1 468.8 -391.6 474.3 -420 420C-448.5 365.8 -398.8 251.8 -414.8 171.8C-430.8 91.9 -512.4 45.9 -594 0L0 0Z" fill="#c3d3d4"></path><path d="M0 396C-39.7 366.9 -79.4 337.9 -134.7 325.2C-190 312.5 -261.1 316.2 -280 280C-299 243.9 -265.9 167.9 -276.5 114.5C-287.2 61.2 -341.6 30.6 -396 0L0 0Z" fill="#4f8082"></path><path d="M0 198C-19.8 183.5 -39.7 168.9 -67.4 162.6C-95 156.3 -130.5 158.1 -140 140C-149.5 121.9 -132.9 83.9 -138.3 57.3C-143.6 30.6 -170.8 15.3 -198 0L0 0Z" fill="#00595c"></path></g><g transform="translate(0, 1080)"><path d="M0 -594C59.4 -544.2 118.8 -494.5 196.3 -474C273.8 -453.4 369.4 -462.2 420 -420C470.7 -377.9 476.5 -284.8 498 -206.3C519.5 -127.8 556.7 -63.9 594 0L0 0Z" fill="#c3d3d4"></path><path d="M0 -396C39.6 -362.8 79.2 -329.6 130.9 -316C182.5 -302.3 246.2 -308.1 280 -280C313.8 -251.9 317.6 -189.8 332 -137.5C346.3 -85.2 371.2 -42.6 396 0L0 0Z" fill="#4f8082"></path><path d="M0 -198C19.8 -181.4 39.6 -164.8 65.4 -158C91.3 -151.1 123.1 -154.1 140 -140C156.9 -126 158.8 -94.9 166 -68.8C173.2 -42.6 185.6 -21.3 198 0L0 0Z" fill="#00595c"></path></g></svg>