<svg id="Layer_1" data-name="Layer 1" xmlns="http://www.w3.org/2000/svg" viewBox="0 0 278.32 278.32">
  <circle cx="139.16" cy="139.16" r="135.16" style="fill: none;stroke: #1d1d1b;stroke-miterlimit: 10;stroke-width: 8px"/>
  <g>
    <path d="M60.09,149.32l30-16.53v4.77L64.81,151.12v.14l25.31,13.56v4.77l-30-16.53Z" transform="translate(-10.84 -10.84)" style="fill: #1d71b8"/>
    <path d="M109.93,147.94c4.59,0,5.24-2.7,5.24-5.12a43.7,43.7,0,0,0-.52-5.81,42.94,42.94,0,0,1-.51-5.74c0-6.37,3.88-9.07,9.38-9.07h1.36V126h-1.16c-3.82,0-5.12,2.21-5.12,6a33.45,33.45,0,0,0,.45,4.91,34.31,34.31,0,0,1,.46,5.26c.06,4.42-1.75,6.64-4.66,7.47v.14c2.91.76,4.72,3.11,4.66,7.54a33.54,33.54,0,0,1-.46,5.26,34.38,34.38,0,0,0-.45,5c0,3.87,1.49,6,5.12,6h1.16v3.8h-1.36c-5.37,0-9.38-2.49-9.38-9.48a41.91,41.91,0,0,1,.51-5.67,40.92,40.92,0,0,0,.52-5.6c0-2.15-.65-5.12-5.24-5.12Z" transform="translate(-10.84 -10.84)" style="fill: #1d71b8"/>
    <path d="M133.88,136.11l4.46,7.19c1.17,1.87,2.14,3.6,3.18,5.47h.19c1-2,2.07-3.74,3.11-5.54l4.4-7.12h6.15L144.69,152.3l11,17.29h-6.47l-4.6-7.54c-1.23-1.94-2.26-3.8-3.36-5.81h-.13c-1,2-2.14,3.81-3.3,5.81l-4.54,7.54H127l11.13-17.09-10.62-16.39Z" transform="translate(-10.84 -10.84)" style="fill: #1d71b8"/>
    <path d="M173,151.47c-4.6,0-5.24,3-5.24,5.12a40.9,40.9,0,0,0,.51,5.6,41.93,41.93,0,0,1,.52,5.67c0,7-4.08,9.48-9.38,9.48h-1.36v-3.8h1.1c3.62-.07,5.18-2.15,5.18-6a43.29,43.29,0,0,0-.46-5,33.36,33.36,0,0,1-.52-5.26c0-4.43,1.82-6.78,4.66-7.54v-.14c-2.84-.83-4.66-3-4.66-7.47a34.22,34.22,0,0,1,.52-5.26,42.12,42.12,0,0,0,.46-4.91c0-3.74-1.36-5.88-5.12-6h-1.16V122.2h1.29c5.5,0,9.45,2.7,9.45,9.07a43,43,0,0,1-.52,5.74,43.68,43.68,0,0,0-.51,5.81c0,2.42.64,5.12,5.24,5.12Z" transform="translate(-10.84 -10.84)" style="fill: #1d71b8"/>
    <path d="M188.51,172.36l18.06-50.16H211l-18.12,50.16Z" transform="translate(-10.84 -10.84)" style="fill: #1d71b8"/>
    <path d="M245.08,153.13l-30,16.46v-4.77l25.5-13.56v-.14l-25.5-13.56v-4.77l30,16.46Z" transform="translate(-10.84 -10.84)" style="fill: #1d71b8"/>
  </g>
  <path d="M96.38,230.39" transform="translate(-10.84 -10.84)" style="fill: none;stroke: #e6007e;stroke-miterlimit: 10"/>
  <path d="M239.58,87.19" transform="translate(-10.84 -10.84)" style="fill: none;stroke: #e6007e;stroke-miterlimit: 10"/>
  <path d="M7.83,136" transform="translate(-10.84 -10.84)" style="fill: none;stroke: #e6007e;stroke-miterlimit: 10"/>
  <path d="M268,150c0,64.75-53.28,118-118,118S32,214.75,32,150A118.08,118.08,0,0,1,64.46,68.67" transform="translate(-10.84 -10.84)" style="fill: none;stroke: #e6007e;stroke-miterlimit: 10;stroke-width: 6px"/>
</svg>
