<svg id="visual" viewBox="0 0 1920 1080" width="1920" height="1080" xmlns="http://www.w3.org/2000/svg" xmlns:xlink="http://www.w3.org/1999/xlink" version="1.1"><rect x="0" y="0" width="1920" height="1080" fill="#ffffff"></rect><path d="M0 517L274 487L549 585L823 584L1097 575L1371 533L1646 497L1920 524L1920 1081L1646 1081L1371 1081L1097 1081L823 1081L549 1081L274 1081L0 1081Z" fill="#e8e8e8"></path><path d="M0 676L274 634L549 648L823 686L1097 716L1371 609L1646 635L1920 679L1920 1081L1646 1081L1371 1081L1097 1081L823 1081L549 1081L274 1081L0 1081Z" fill="#aacbc0"></path><path d="M0 751L274 802L549 798L823 797L1097 809L1371 771L1646 815L1920 773L1920 1081L1646 1081L1371 1081L1097 1081L823 1081L549 1081L274 1081L0 1081Z" fill="#6aaf99"></path><path d="M0 906L274 878L549 876L823 909L1097 903L1371 936L1646 894L1920 935L1920 1081L1646 1081L1371 1081L1097 1081L823 1081L549 1081L274 1081L0 1081Z" fill="#039273"></path></svg>