<svg id="Layer_1" data-name="Layer 1" xmlns="http://www.w3.org/2000/svg" viewBox="0 0 278.32 278.32">
  <circle cx="139.16" cy="139.16" r="135.16" style="fill: none;stroke: #1d1d1b;stroke-miterlimit: 10;stroke-width: 8px"/>
  <path d="M96.38,230.39" transform="translate(-10.84 -10.84)" style="fill: none;stroke: #e6007e;stroke-miterlimit: 10"/>
  <path d="M239.58,87.19" transform="translate(-10.84 -10.84)" style="fill: none;stroke: #e6007e;stroke-miterlimit: 10"/>
  <path d="M7.83,136" transform="translate(-10.84 -10.84)" style="fill: none;stroke: #e6007e;stroke-miterlimit: 10"/>
  <path d="M31.81,149.42c.57-64.75,54.32-117.56,119.06-117s117.56,54.31,117,119.06a118.07,118.07,0,0,1-33.21,81" transform="translate(-10.84 -10.84)" style="fill: none;stroke: #3aaa35;stroke-miterlimit: 10;stroke-width: 6px"/>
  <g>
    <path d="M76.08,158.77a20,20,0,0,1-3.25,2.93,11.07,11.07,0,0,1-3.11,1.53,12.27,12.27,0,0,1-3.43.46,7.57,7.57,0,0,1-3.11-.59A6.1,6.1,0,0,1,61,161.5a6.66,6.66,0,0,1-1.27-2.42,11,11,0,0,1-.41-3.05,17.7,17.7,0,0,1,.88-5.25,15.3,15.3,0,0,1,2.67-5,12.48,12.48,0,0,1,4.27-3.46,12,12,0,0,1,5.31-1.22,6.48,6.48,0,0,1,4.15,1.12,4.24,4.24,0,0,1,1.38,3.5,6.25,6.25,0,0,1-3.64,5.83q-3.66,1.95-10.83,1.94a14.72,14.72,0,0,0-.28,3,5.29,5.29,0,0,0,.94,3.48A3.84,3.84,0,0,0,67.25,161a8,8,0,0,0,3.82-.91,15.18,15.18,0,0,0,3.59-2.82Zm-12.16-7.25a32,32,0,0,0,3.69-.24,15.17,15.17,0,0,0,2.73-.59,7.65,7.65,0,0,0,1.9-.91,4.9,4.9,0,0,0,1.2-1.15,3.93,3.93,0,0,0,.62-1.33,6.26,6.26,0,0,0,.17-1.45,3.33,3.33,0,0,0-.65-2.18,2.36,2.36,0,0,0-1.93-.79A5.21,5.21,0,0,0,68.5,144a10.68,10.68,0,0,0-2.72,3.11A17.3,17.3,0,0,0,63.92,151.52Z" transform="translate(-10.84 -10.84)" style="fill: #78acde"/>
    <path d="M83,144.39c-.09.45-.16.79-.18,1a3.79,3.79,0,0,0,0,.53,1.23,1.23,0,0,0,.13.63.87.87,0,0,0,.41.34,3.35,3.35,0,0,0,.92.19l-.12.65H80l2-9q.18-.78.24-1.23a5,5,0,0,0,.07-.77,1.37,1.37,0,0,0-.11-.6.72.72,0,0,0-.38-.32,3,3,0,0,0-.92-.13l.14-.71,3.26-.12h.78Zm3.3-14.64-.62,2.59H83.36l.62-2.59Z" transform="translate(-10.84 -10.84)" style="fill: #78acde"/>
    <path d="M102.19,136.65h-3l-1.87,8.21a3.36,3.36,0,0,0-.09.72c0,.63.26.94.78.94a2.64,2.64,0,0,0,1.58-1l.49.68a4.44,4.44,0,0,1-3.13,1.72c-1.27,0-1.9-.68-1.9-2a5.6,5.6,0,0,1,.18-1.36l1.77-7.9H93.07l-2.48,11.07H87.88l.14-.65c.75-.72,1.56-2.9,2.42-6.56l.91-3.86h-.16a4.3,4.3,0,0,0-3.64,1.65l-.63-.71A5.72,5.72,0,0,1,91.74,135h10.81Z" transform="translate(-10.84 -10.84)" style="fill: #78acde"/>
    <path d="M126.77,151.47l-1.92,8.72h-3.43l1.92-8.72h-7.8l.69-3.08H124l1.89-8.69h3.43l-1.89,8.69h7.86l-.68,3.08Z" transform="translate(-10.84 -10.84)" style="fill: #78acde"/>
    <path d="M161.49,156.71a14.13,14.13,0,0,0-.42,2.68,1.77,1.77,0,0,0,.48,1.36,3.24,3.24,0,0,0,1.59.64,25.58,25.58,0,0,0,3.45.26l-.35,1.67H150.1l.34-1.67a28.44,28.44,0,0,0,2.95-.25,6.66,6.66,0,0,0,1.66-.44,3.21,3.21,0,0,0,1-.66,3.54,3.54,0,0,0,.68-1,9.06,9.06,0,0,0,.57-1.92L161,140.77c.14-.64.24-1.15.31-1.53a5.28,5.28,0,0,0,.1-.94,1.2,1.2,0,0,0-.34-1,1.24,1.24,0,0,0-.82-.29,4.81,4.81,0,0,0-1.81.59c-.81.39-2,1.05-3.61,2l-.89-1.83,11.59-6.06h1.58l-.66,2.68c-.25,1-.51,2.11-.78,3.4Z" transform="translate(-10.84 -10.84)" style="fill: #78acde"/>
    <path d="M184.65,156.23l.69-3.09h19l-.69,3.09Zm2.08-9.49.69-3.09h19l-.69,3.09Z" transform="translate(-10.84 -10.84)" style="fill: #78acde"/>
    <path d="M227.3,163.69a7.73,7.73,0,0,1-3.64-.8,5.43,5.43,0,0,1-2.34-2.63,11.71,11.71,0,0,1-.83-4.83,34.21,34.21,0,0,1,.54-5.8,39.48,39.48,0,0,1,1.5-5.88,27.77,27.77,0,0,1,2.28-5,17.86,17.86,0,0,1,2.91-3.8,11.92,11.92,0,0,1,3.4-2.36,9,9,0,0,1,3.73-.81,7.73,7.73,0,0,1,3.19.59,5.49,5.49,0,0,1,2.1,1.66,6.83,6.83,0,0,1,1.17,2.54,14.18,14.18,0,0,1,.35,3.24,36,36,0,0,1-1.45,10,29.19,29.19,0,0,1-3.69,8.35,13.64,13.64,0,0,1-4.46,4.33A9.42,9.42,0,0,1,227.3,163.69Zm-2.86-6.82a10.33,10.33,0,0,0,.32,2.89,2.73,2.73,0,0,0,1,1.51,3.06,3.06,0,0,0,1.83.47,4.7,4.7,0,0,0,3.32-1.62,16,16,0,0,0,3-4.85,46.53,46.53,0,0,0,2.6-8.25,39.24,39.24,0,0,0,1.17-8.69,6.79,6.79,0,0,0-.72-3.54,2.55,2.55,0,0,0-2.3-1.11,4.16,4.16,0,0,0-2,.51,7.23,7.23,0,0,0-2.26,2,19.43,19.43,0,0,0-2.52,4.53,45.94,45.94,0,0,0-1.85,5.69c-.4,1.56-.73,3.08-1,4.58A31.53,31.53,0,0,0,224.44,156.87Z" transform="translate(-10.84 -10.84)" style="fill: #78acde"/>
  </g>
</svg>
