<svg id="visual" viewBox="0 0 1920 1080" width="1920" height="1080" xmlns="http://www.w3.org/2000/svg" xmlns:xlink="http://www.w3.org/1999/xlink" version="1.1"><rect x="0" y="0" width="1920" height="1080" fill="#bbeaff"></rect><path d="M0 701L45.7 731C91.3 761 182.7 821 274.2 856.3C365.7 891.7 457.3 902.3 548.8 886.3C640.3 870.3 731.7 827.7 823 795.5C914.3 763.3 1005.7 741.7 1097 751C1188.3 760.3 1279.7 800.7 1371.2 808.3C1462.7 816 1554.3 791 1645.8 780.8C1737.3 770.7 1828.7 775.3 1874.3 777.7L1920 780L1920 1081L1874.3 1081C1828.7 1081 1737.3 1081 1645.8 1081C1554.3 1081 1462.7 1081 1371.2 1081C1279.7 1081 1188.3 1081 1097 1081C1005.7 1081 914.3 1081 823 1081C731.7 1081 640.3 1081 548.8 1081C457.3 1081 365.7 1081 274.2 1081C182.7 1081 91.3 1081 45.7 1081L0 1081Z" fill="#1f1f1f" stroke-linecap="round" stroke-linejoin="miter"></path></svg>